<svg version="1.1" id="Layer_1" xmlns="http://www.w3.org/2000/svg" xmlns:xlink="http://www.w3.org/1999/xlink" x="0px" y="0px"
	 width="100%" viewBox="0 0 592 560" enable-background="new 0 0 592 560" xml:space="preserve">
<path fill="currentColor" opacity="1.000000" stroke="none" 
	d="
M481.343079,317.193298 
	C474.219330,334.132629 461.723694,345.402344 446.326843,353.995056 
	C433.418427,361.199005 425.248962,372.578583 419.145142,385.700623 
	C417.846680,388.492065 418.356201,390.183929 421.063873,391.845612 
	C428.346558,396.315125 428.335052,396.481934 434.096130,390.249298 
	C439.930023,383.937836 446.377197,378.559753 454.494110,375.365112 
	C459.778534,373.285278 464.812347,373.345306 469.894226,376.020630 
	C486.393738,384.706573 502.933899,393.315277 519.465454,401.940216 
	C521.758972,403.136780 524.092041,404.257446 527.307190,405.862854 
	C520.861206,408.684937 515.225342,410.954315 510.253998,414.496735 
	C497.231903,423.775726 487.801483,436.224121 479.509735,449.587036 
	C468.761322,466.909027 460.110474,485.217194 454.787354,504.986298 
	C450.851807,519.602173 449.139923,534.276367 453.572876,549.181885 
	C451.906250,550.329224 450.767242,548.905396 449.575500,548.247070 
	C433.106354,539.149902 416.881989,529.578064 400.143341,521.010071 
	C386.342133,513.945679 383.647949,504.465424 385.121735,490.990356 
	C385.785645,484.920166 386.195618,478.717468 388.275024,472.853729 
	C389.079437,470.585419 388.366180,469.037445 386.156830,467.999054 
	C383.598450,466.796631 381.103760,465.453156 378.618317,464.103058 
	C376.954834,463.199493 375.223145,463.003052 374.135040,464.629303 
	C370.789246,469.629822 366.197388,473.406433 360.614044,477.798492 
	C366.981720,478.061340 371.371368,473.689026 376.957306,475.357269 
	C375.704590,481.322052 374.357361,486.959412 374.156555,492.771088 
	C374.072388,495.207642 372.167358,495.987640 370.173309,496.634888 
	C342.034180,505.768494 313.207001,507.800232 283.837708,505.715302 
	C267.757324,504.573761 252.348038,500.794678 236.965729,496.418152 
	C232.917374,495.266357 231.166199,493.083527 230.973572,489.080841 
	C230.759125,484.625031 230.899567,480.131256 229.381653,475.942596 
	C233.311142,473.144562 236.866333,476.839813 240.934723,475.406311 
	C237.654617,471.581116 234.565002,467.883423 231.357864,464.290680 
	C230.275192,463.077942 228.855682,463.638000 227.661682,464.285828 
	C216.070847,470.574738 216.362381,466.073334 219.103485,479.488892 
	C220.534164,486.490997 220.919235,493.646698 220.376541,500.832428 
	C219.737228,509.297638 215.972656,515.649841 208.415359,519.722839 
	C191.412842,528.886414 174.436523,538.098694 157.464767,547.319092 
	C156.115295,548.052246 154.756409,548.507751 152.572067,548.575745 
	C153.132874,543.665161 154.743149,539.166931 154.852097,534.413269 
	C155.277679,515.841248 150.176331,498.526123 142.958176,481.777069 
	C134.218491,461.497437 123.510139,442.392883 108.114899,426.198273 
	C100.679123,418.376373 92.683487,411.525635 82.530243,407.522522 
	C81.477547,407.107513 80.195435,406.987183 79.786873,405.190948 
	C85.792381,401.989624 91.881340,398.716187 97.995461,395.490509 
	C109.189941,389.584656 120.604080,384.059875 131.541870,377.713165 
	C141.454132,371.961517 150.270508,373.946655 159.151321,379.597382 
	C165.108307,383.387726 170.330521,388.041443 175.018997,393.250519 
	C179.148621,397.838715 181.753021,393.280151 184.892593,391.950195 
	C188.262024,390.522858 187.806320,388.159851 186.544662,385.375488 
	C179.872009,370.649353 169.827667,359.066406 155.492630,351.319214 
	C134.922424,340.202301 124.477875,321.700134 118.956039,299.974548 
	C112.586357,274.913177 111.284805,249.288971 112.879677,223.623428 
	C115.305794,184.580933 136.424988,158.779678 171.974365,144.435654 
	C200.526672,132.914932 230.323807,126.260666 261.035675,123.511696 
	C274.968170,122.264626 288.908813,120.715965 302.867706,120.988808 
	C340.916595,121.732513 378.576294,125.578789 414.982666,137.603149 
	C430.494934,142.726578 445.879761,148.146347 459.185791,158.043808 
	C477.684418,171.803711 487.775696,190.453598 491.375671,212.986267 
	C494.882019,234.933014 493.435852,256.808167 490.730835,278.668182 
	C489.114319,291.732086 486.754181,304.646027 481.343079,317.193298 
M463.920380,264.694855 
	C465.549408,249.946472 466.630890,235.187592 464.447632,220.398285 
	C462.769409,209.030106 459.334625,198.390915 451.579529,189.530640 
	C444.272125,181.181793 434.972198,175.792542 425.010132,171.335693 
	C389.730652,155.552246 352.161255,151.206009 314.142426,149.413223 
	C298.335114,148.667816 282.536194,149.526337 266.766998,151.192642 
	C238.371307,154.193146 210.726349,159.842880 183.950241,170.255859 
	C156.464340,180.944855 142.265091,200.113968 141.030563,229.548203 
	C140.483856,242.582779 141.202179,255.513962 142.595291,268.381592 
	C143.951416,280.907471 145.450821,293.581390 150.948166,305.188843 
	C162.682205,329.964722 186.366241,337.441895 211.262482,325.762665 
	C227.766006,318.020599 240.359085,305.494751 251.765839,291.578430 
	C258.830994,282.958893 265.479034,273.969177 273.788452,266.412323 
	C289.807831,251.843826 311.866241,250.842743 329.124542,263.794769 
	C339.182434,271.342987 345.525482,282.095245 353.539062,291.396484 
	C365.366455,305.124359 378.051544,317.663696 394.621979,325.726837 
	C419.052429,337.614685 441.499084,330.473938 454.234161,306.592438 
	C461.071655,293.770416 462.228546,279.642487 463.920380,264.694855 
M295.931549,428.049255 
	C293.804871,427.469513 291.507904,425.341125 289.517731,427.690247 
	C284.315918,433.830109 278.966522,439.889313 274.781219,446.734955 
	C288.333496,458.490509 314.218475,459.517731 328.434021,449.332123 
	C330.946198,447.532135 331.152069,445.930939 329.239563,443.638214 
	C325.517120,439.175690 321.857544,434.659210 318.246399,430.105988 
	C316.094421,427.392578 313.611542,426.675842 310.356934,428.028961 
	C305.878082,429.891022 301.285278,429.699921 295.931549,428.049255 
M267.968140,406.392548 
	C269.956512,406.246521 271.947418,405.952820 273.932709,405.987030 
	C277.438110,406.047424 279.203857,404.830109 279.978394,401.026459 
	C281.124969,395.396118 284.017151,390.433502 288.880615,387.011383 
	C290.782043,385.673492 291.648010,384.322906 290.657074,382.018219 
	C287.963257,375.752869 285.355255,369.450684 282.704773,363.166687 
	C281.656555,360.681580 280.054077,360.050110 277.541870,361.339996 
	C274.248108,363.031067 271.292542,365.185394 268.571838,367.629974 
	C258.290192,376.868225 252.920319,388.485535 252.039185,402.244263 
	C251.775208,406.366455 253.182709,408.084259 257.610138,407.154266 
	C260.670013,406.511536 263.904694,406.701172 267.968140,406.392548 
M350.985443,387.541382 
	C346.667633,377.376892 340.562439,368.665955 331.008789,362.693024 
	C326.189117,359.679779 324.981720,359.950165 322.786346,364.922913 
	C320.505829,370.088470 318.215912,375.250092 315.980377,380.435150 
	C315.203461,382.237122 314.107758,384.100708 316.375214,385.754639 
	C322.017303,389.870117 325.150208,395.586151 326.783752,402.246185 
	C327.268616,404.222961 328.485748,405.401245 330.578674,405.632324 
	C336.681641,406.306061 342.768311,407.180237 348.886475,407.648163 
	C354.328583,408.064423 355.335388,406.771790 354.400757,401.295288 
	C353.647888,396.883728 352.950562,392.449524 350.985443,387.541382 
M292.608337,411.632019 
	C293.613892,412.723022 294.500549,413.962433 295.645508,414.879425 
	C300.699829,418.927277 307.525085,418.312317 311.717865,413.528809 
	C315.940765,408.710968 315.581482,402.008667 310.856079,397.454620 
	C307.170563,393.902771 301.462189,393.250031 297.119995,395.884064 
	C291.704346,399.169312 290.155853,403.960144 292.608337,411.632019 
z"/>
<path fill="currentColor" opacity="1.000000" stroke="none" 
	d="
M511.560944,195.424652 
	C501.507690,166.782257 487.329742,140.998932 467.153381,118.642799 
	C443.968536,92.953079 416.210358,73.860916 384.110687,61.185032 
	C357.704865,50.757595 330.271210,45.191330 301.769501,45.352211 
	C276.177612,45.496670 251.603851,50.752884 227.587524,59.363007 
	C192.338181,72.000290 162.436295,92.444344 137.693176,120.420624 
	C113.758331,147.483002 97.922607,178.781418 89.181488,213.827240 
	C85.010025,230.551895 82.762047,247.493729 82.452469,264.638947 
	C81.771042,302.378815 91.234970,337.786469 108.375702,371.215057 
	C110.653656,375.657623 109.881203,377.841644 105.440544,379.443512 
	C103.259804,380.230164 101.182365,381.340546 99.129951,382.438538 
	C93.119896,385.653778 93.190872,385.652100 90.264191,379.730896 
	C85.173210,369.430908 80.472427,358.958710 76.417015,348.210876 
	C75.500046,345.780670 74.014503,344.422028 71.623100,343.643250 
	C43.393158,334.449982 27.337955,306.862030 24.542246,281.477264 
	C22.460754,262.577545 25.521133,245.018066 35.017883,228.608765 
	C42.698189,215.338074 53.647888,205.635696 67.887810,199.930984 
	C71.203194,198.602798 72.819084,196.778290 73.914062,193.445114 
	C84.700775,160.609894 101.014191,131.006424 124.481255,105.328438 
	C152.263824,74.928398 185.443848,53.181366 224.202713,39.324650 
	C254.650757,28.439140 285.905304,24.279074 317.962891,25.967400 
	C346.636444,27.477503 374.101013,34.441185 400.387207,46.132835 
	C436.704498,62.286160 467.163086,86.001190 491.788849,117.075340 
	C510.058197,140.128586 523.494019,165.859436 531.950317,194.086426 
	C532.758240,196.783478 534.110168,198.279419 536.619263,199.357758 
	C565.943970,211.960587 579.574707,235.127823 581.345764,266.184875 
	C582.193481,281.051727 580.336060,295.393097 573.309509,308.822205 
	C564.942810,324.812561 552.972656,336.741882 535.672607,342.695740 
	C532.698364,343.719299 530.989929,345.370148 529.873474,348.242004 
	C525.709412,358.952606 520.789490,369.333160 515.943542,379.749420 
	C514.029541,383.863525 512.028931,385.726074 507.719452,382.708130 
	C504.061646,380.146515 497.994080,379.769440 496.518677,375.868713 
	C494.993103,371.835449 499.677551,367.928741 501.490936,363.906769 
	C515.623657,332.560944 524.054749,299.924500 523.591248,265.361176 
	C523.272461,241.589142 519.140137,218.393402 511.560944,195.424652 
z"/>
<path fill="currentColor" opacity="1.000000" stroke="none" 
	d="
M523.215698,511.149414 
	C514.133972,525.859009 504.145813,539.314148 490.338531,549.494202 
	C486.281311,552.485535 481.916931,554.840149 477.085876,556.328979 
	C469.205170,558.757690 461.408417,554.824341 458.714874,546.979309 
	C454.863983,535.763245 456.577301,524.497253 459.174408,513.468567 
	C466.641541,481.759003 481.261627,453.615265 502.745209,429.117249 
	C508.480377,422.577393 515.059021,416.987610 523.023193,413.133759 
	C534.884155,407.394318 545.092957,412.845734 547.346375,425.877289 
	C549.089905,435.960114 548.123169,445.777161 545.793213,455.559296 
	C541.135376,475.114319 534.167603,493.748810 523.215698,511.149414 
M514.291992,482.131592 
	C515.241455,485.245758 517.518250,486.758301 520.598694,486.713165 
	C523.604187,486.669159 523.906189,483.814514 524.780640,481.781860 
	C526.350220,478.133270 527.904297,474.459686 529.141052,470.690308 
	C531.283264,464.161194 533.346802,457.584717 533.563416,449.620331 
	C528.642578,455.119568 525.193115,460.515717 521.657410,465.822052 
	C518.453491,470.630493 515.062683,475.404480 514.291992,482.131592 
M501.425842,505.890472 
	C499.109436,513.087402 496.387238,520.167664 494.711182,528.437256 
	C504.323059,520.347961 509.688690,510.115875 515.858032,500.508820 
	C517.002747,498.726288 515.908447,497.373077 514.387207,496.329651 
	C511.242676,494.172791 506.922974,494.952118 504.816711,498.377808 
	C503.523224,500.481598 502.756226,502.909088 501.425842,505.890472 
M500.507721,451.005707 
	C497.257599,456.214935 494.027832,461.437012 490.749725,466.628540 
	C488.776001,469.754272 489.919708,471.845428 492.774902,473.589325 
	C495.782379,475.426208 497.974792,474.966278 499.736755,471.794189 
	C504.878082,462.538055 506.611969,452.294678 508.187531,441.779053 
	C505.768402,444.661957 503.349304,447.544830 500.507721,451.005707 
M517.267395,443.697693 
	C515.957214,449.991760 513.346558,456.020935 513.235413,462.638336 
	C519.436951,455.271637 524.847717,447.513794 529.890564,439.493134 
	C531.607788,436.761963 532.962952,434.110596 529.050415,431.983582 
	C524.981201,429.771515 521.903748,430.658356 520.136230,434.874573 
	C519.046753,437.473480 518.328674,440.227997 517.267395,443.697693 
M478.023621,493.488159 
	C475.810303,499.432678 473.655792,505.390228 473.950745,512.072754 
	C480.436707,504.908478 487.087708,498.031067 491.152588,489.243378 
	C492.869598,485.531433 489.708221,484.238342 487.296204,482.888275 
	C484.377136,481.254517 482.635834,482.756683 481.498352,485.460571 
	C480.466980,487.912079 479.377045,490.338928 478.023621,493.488159 
M489.923218,507.097443 
	C484.647003,513.889099 479.357605,520.670593 474.099976,527.476624 
	C471.351105,531.035156 473.449005,533.343018 476.366730,535.145935 
	C479.499176,537.081482 481.889282,536.424438 483.434998,532.799744 
	C486.752777,525.019653 489.347015,517.004578 491.522949,508.848907 
	C491.722412,508.101410 492.590027,506.392487 489.923218,507.097443 
z"/>
<path fill="currentColor" opacity="1.000000" stroke="none" 
	d="
M131.484039,471.617615 
	C139.275314,488.790100 146.603348,505.709747 148.800201,524.340637 
	C149.607101,531.183716 149.645279,537.955627 148.096512,544.673401 
	C145.724869,554.960327 137.823837,559.249756 127.627876,555.771057 
	C117.551247,552.333191 109.489830,545.708374 102.675453,537.963257 
	C79.174019,511.252167 64.281654,480.217590 58.098232,445.154205 
	C56.888596,438.294983 56.972157,431.276093 58.639454,424.337555 
	C61.475784,412.534058 70.686394,407.705475 81.755867,412.715790 
	C92.033287,417.367584 99.435638,425.629761 106.752922,433.809265 
	C116.803139,445.043823 124.663605,457.784058 131.484039,471.617615 
M74.432961,452.559143 
	C73.970543,452.143280 73.508125,451.727448 72.681313,450.983887 
	C72.538429,452.047089 72.297470,452.673523 72.401871,453.235840 
	C74.413254,464.069885 77.971542,474.425385 82.291862,484.526642 
	C82.986862,486.151581 83.909065,488.102386 86.314163,487.382812 
	C88.607719,486.696594 90.624168,485.465790 91.462189,483.043976 
	C92.236031,480.807617 91.282211,478.791504 90.329803,476.832397 
	C86.159248,468.253510 80.310669,460.764069 74.432961,452.559143 
M99.458450,453.139160 
	C100.421181,456.654541 101.438499,460.156158 102.331039,463.689270 
	C103.196289,467.114288 104.494301,470.307648 106.776062,473.044891 
	C109.047508,475.769745 111.542374,474.759552 113.891960,473.291748 
	C115.620178,472.212128 118.244492,471.254547 116.708984,468.416046 
	C111.838150,459.411774 106.257973,450.916748 98.342278,443.381012 
	C97.499146,447.070038 99.119942,449.616394 99.458450,453.139160 
M92.951256,460.909088 
	C90.833694,452.579590 88.801399,444.227081 86.563324,435.930115 
	C85.410271,431.655518 82.047783,430.080383 78.136604,431.749664 
	C74.068413,433.485992 73.905579,436.209229 76.055222,439.734436 
	C81.382339,448.470428 86.810883,457.124023 93.967812,464.769196 
	C93.689308,463.707336 93.410805,462.645447 92.951256,460.909088 
M127.288757,492.207672 
	C126.401520,490.068512 125.637863,487.866516 124.591675,485.808136 
	C123.581154,483.819916 123.365456,480.347992 119.596123,482.235596 
	C116.639519,483.716156 112.812111,485.269684 114.672371,489.450714 
	C118.527390,498.115204 124.238754,505.551331 131.523636,511.701904 
	C131.650253,511.808838 132.089722,511.545227 132.608093,511.385010 
	C132.392197,504.851196 129.276581,499.076965 127.288757,492.207672 
M114.145287,508.817810 
	C116.563240,516.907593 118.919189,525.016724 121.425331,533.079102 
	C122.676346,537.103638 125.596649,537.543884 128.912079,535.771545 
	C131.967575,534.138123 134.270966,531.514404 131.755905,528.144287 
	C125.742134,520.085938 120.348122,511.532684 112.742119,503.246399 
	C113.341591,505.601868 113.662292,506.861969 114.145287,508.817810 
M103.329254,520.158875 
	C105.394363,522.474365 107.459473,524.789856 110.509842,528.210083 
	C108.716980,517.114075 104.830696,508.322052 101.862175,499.261169 
	C101.433960,497.954041 100.411636,497.071472 99.297821,496.285706 
	C96.422722,494.257385 93.809540,495.384247 91.538315,497.211273 
	C89.222313,499.074280 90.693359,501.090179 91.907616,502.930725 
	C95.571457,508.484192 99.243263,514.032410 103.329254,520.158875 
z"/>
<path fill="currentColor" opacity="1.000000" stroke="none" 
	d="
M419.607422,261.750610 
	C395.351685,272.761658 371.837341,272.178680 348.922180,259.081543 
	C343.245819,255.837219 341.638184,251.267899 343.518066,246.070480 
	C345.580017,240.369781 351.213165,238.189819 357.504822,240.965576 
	C363.290863,243.518280 368.937958,246.350876 375.218872,247.595551 
	C388.648743,250.256927 401.358459,248.229019 413.446259,241.929596 
	C420.541382,238.232056 425.137970,239.092270 428.493225,244.756683 
	C431.577362,249.963379 430.274780,255.332947 425.110962,258.540955 
	C423.414032,259.595154 421.658600,260.555267 419.607422,261.750610 
z"/>
<path fill="currentColor" opacity="1.000000" stroke="none" 
	d="
M255.975250,260.070526 
	C232.306000,272.487762 208.855591,272.515991 185.312637,260.830597 
	C184.270401,260.313324 183.253235,259.735962 182.264572,259.121918 
	C176.587997,255.596283 174.636734,249.726440 177.447540,244.696045 
	C180.256393,239.669083 185.751450,238.217422 191.771408,241.278641 
	C197.440414,244.161377 203.243408,246.487671 209.513443,247.695801 
	C222.960083,250.286774 235.592834,248.096542 247.628647,241.699066 
	C251.409958,239.689133 255.455704,238.369446 259.301575,241.566132 
	C262.621918,244.326004 264.136353,247.920456 263.008392,252.243820 
	C262.064636,255.861069 259.510132,258.197693 255.975250,260.070526 
z"/>
</svg>