<svg version="1.1" id="Layer_1" xmlns="http://www.w3.org/2000/svg" xmlns:xlink="http://www.w3.org/1999/xlink" x="0px" y="0px"
	 width="100%" viewBox="0 0 544 480" enable-background="new 0 0 544 480" xml:space="preserve">
<path fill="currentColor" opacity="1.000000" stroke="none" 
	d="
M545.000000,270.531342 
	C541.730042,281.388153 537.360168,291.112946 530.371826,299.715546 
	C523.427979,308.263336 514.976807,314.511658 504.791626,318.169403 
	C499.666718,320.009888 496.863434,322.630493 494.775055,327.875427 
	C482.680298,358.251129 465.142120,385.151703 441.648987,408.039825 
	C413.588196,435.378052 380.902191,454.967896 343.337494,466.146332 
	C315.589325,474.403595 287.238495,476.863525 258.356750,474.464935 
	C215.422592,470.899292 176.765106,456.123566 142.030258,430.895081 
	C107.137772,405.552094 81.311821,372.832977 63.650490,333.577087 
	C63.173737,332.517395 62.715912,331.430939 62.418446,330.311951 
	C60.827747,324.328522 57.486740,320.862671 51.339607,318.218384 
	C26.587456,307.570740 13.461852,287.817383 9.715176,261.456635 
	C7.808707,248.043182 8.998960,234.834839 13.003974,221.982590 
	C19.440392,201.327896 32.981190,187.003937 52.945099,178.750519 
	C55.228813,177.806396 56.865925,176.534760 57.636326,174.020111 
	C66.787598,144.149460 81.871857,117.544998 101.913948,93.656929 
	C132.852585,56.781345 171.794708,32.131866 218.023270,19.611389 
	C261.266785,7.899375 304.673798,8.445234 347.505066,22.453823 
	C407.480682,42.069721 452.086151,80.200966 482.234314,135.402496 
	C488.944427,147.688751 494.097015,160.708252 498.025391,174.166763 
	C498.586151,176.087997 499.343384,177.558472 501.233521,178.261169 
	C523.886047,186.682587 537.647034,203.145355 544.400757,225.954636 
	C544.447510,226.112549 544.543823,226.255814 544.808472,226.702972 
	C545.000000,241.354233 545.000000,255.708450 545.000000,270.531342 
M467.306732,150.129303 
	C456.601501,127.571449 441.721222,108.000374 423.801758,90.806923 
	C387.341217,55.823612 343.698639,36.108688 293.372467,32.466293 
	C247.388184,29.138140 204.464966,39.678059 165.316879,64.504608 
	C138.141846,81.738220 115.728531,103.954796 99.039009,131.317795 
	C74.879593,170.927963 62.832752,213.912903 66.173538,260.741608 
	C68.481903,293.098633 78.347923,322.980286 94.931084,350.641846 
	C109.290367,374.593811 127.756088,395.010895 149.992798,411.984222 
	C187.945831,440.953796 230.793808,455.757507 278.515869,455.567963 
	C304.150360,455.466156 329.154419,451.053467 353.207397,441.687958 
	C380.749207,430.964050 405.075409,415.307709 426.308075,394.842102 
	C446.589447,375.293396 461.973877,352.387390 473.211548,326.539001 
	C481.777618,306.835785 487.685059,286.401489 489.486053,265.093384 
	C492.868988,225.069489 485.369415,186.898849 467.306732,150.129303 
z"/>
<path fill="currentColor" opacity="1.000000" stroke="none" 
	d="
M104.893967,216.204376 
	C114.238922,183.445251 134.770493,160.103775 163.295563,143.312653 
	C185.672028,130.140884 210.000458,122.792557 235.572708,118.496498 
	C270.274658,112.666664 304.674835,113.730629 338.641418,122.093658 
	C370.064606,129.830460 399.162659,142.714264 422.265503,166.490311 
	C441.050262,185.822510 452.238434,208.839188 454.304108,235.739624 
	C458.046295,284.472992 442.690277,326.874756 410.001068,362.919159 
	C382.797546,392.914825 348.897827,411.566254 309.124054,418.625214 
	C271.701385,425.266907 235.569473,420.121552 201.090073,403.753693 
	C162.487137,385.428284 134.784164,356.260773 116.064796,318.306458 
	C107.825760,301.601501 104.092613,283.510345 101.627686,265.115631 
	C99.426849,248.691605 101.056824,232.599228 104.893967,216.204376 
M353.759399,340.058075 
	C357.583069,332.851990 350.496155,327.116241 343.738129,327.138275 
	C299.741364,327.281708 255.743942,327.206055 211.746826,327.269257 
	C205.581955,327.278137 201.501297,330.838715 201.400604,335.837616 
	C201.296890,340.986572 205.530579,344.893158 211.818726,344.901947 
	C255.981979,344.963776 300.145386,344.922577 344.308716,344.948639 
	C348.047729,344.950836 351.195465,343.928925 353.759399,340.058075 
M318.684723,236.003906 
	C319.087463,242.910019 322.512512,246.478867 329.144897,246.702988 
	C332.800293,246.826523 336.463318,246.723557 340.122925,246.723862 
	C356.924347,246.725250 373.727020,246.847900 390.526550,246.670502 
	C397.456238,246.597351 401.018372,243.012863 400.878601,237.171768 
	C400.756531,232.069366 397.096405,229.170532 390.364716,229.148010 
	C369.737274,229.078979 349.109253,229.143326 328.482086,229.036667 
	C323.753754,229.012222 320.438477,230.675079 318.684723,236.003906 
M226.233200,229.104568 
	C205.604874,229.111710 184.976395,229.078186 164.348312,229.152191 
	C158.586594,229.172867 155.451721,231.903763 155.105560,236.747101 
	C154.730606,241.993301 157.387711,245.154037 163.130630,246.238297 
	C164.270844,246.453568 165.434875,246.669403 166.588089,246.670288 
	C186.716766,246.685654 206.845993,246.746841 226.973846,246.610870 
	C233.448502,246.567154 236.981796,242.993027 236.921127,237.293259 
	C236.866837,232.193451 233.614288,229.466797 226.233200,229.104568 
z"/>
</svg>