<svg version="1.1" id="Layer_1" xmlns="http://www.w3.org/2000/svg" xmlns:xlink="http://www.w3.org/1999/xlink" x="0px" y="0px"
	 width="100%" viewBox="0 0 544 480" enable-background="new 0 0 544 480" xml:space="preserve">
<path fill="currentColor" opacity="1.000000" stroke="none" 
	d="
M512.225708,307.303375 
	C507.081512,310.787720 501.936890,313.493591 496.385162,315.344635 
	C493.690338,316.243134 492.503387,318.323425 491.556915,320.691406 
	C465.101624,386.877075 418.436920,432.380646 351.684662,457.287781 
	C320.750610,468.830139 288.603149,472.477112 255.936142,470.015869 
	C209.863312,466.544586 168.796402,449.593628 132.330460,421.319611 
	C99.740150,396.050659 75.647682,364.269318 60.097279,326.154785 
	C57.517384,319.831329 54.329784,316.036652 47.814201,313.294312 
	C23.951021,303.250366 11.318555,284.263611 7.647013,259.050354 
	C4.687232,238.724869 7.000103,219.199142 17.808289,201.288483 
	C24.713833,189.845062 34.361622,181.203552 46.627357,175.980194 
	C51.914379,173.728729 54.400753,170.601746 56.159683,165.118668 
	C62.395012,145.681335 71.701988,127.621681 82.949440,110.587372 
	C103.038429,80.162514 128.828766,55.643795 160.495544,37.662594 
	C183.935287,24.352909 208.935867,14.985931 235.751648,10.675835 
	C274.617767,4.428891 312.879944,6.535740 349.946106,19.924225 
	C398.335938,37.402870 437.418976,67.278221 466.154877,110.326317 
	C478.444183,128.736450 488.346649,148.211060 494.335846,169.569092 
	C495.223114,172.733139 497.544586,174.105789 500.175568,175.226318 
	C528.893311,187.457291 541.530090,210.554428 543.215210,240.381088 
	C544.379700,260.993195 539.193420,279.982880 525.271362,295.975311 
	C521.515991,300.289215 517.241150,303.927917 512.225708,307.303375 
M77.333450,316.262299 
	C84.605392,335.236481 94.641991,352.772003 107.414070,368.417023 
	C157.870438,430.222961 222.756302,458.407684 302.498657,449.310364 
	C345.850769,444.364502 383.221130,425.346344 415.636749,396.464661 
	C439.113647,375.547180 456.829865,350.420013 469.535339,321.673126 
	C479.327026,299.518768 484.969513,276.248566 486.489899,252.244232 
	C488.418762,221.790649 482.842651,192.268265 471.829926,163.826324 
	C453.798126,117.256615 423.283295,81.179985 380.269135,55.808186 
	C356.184967,41.602192 330.209625,32.839729 302.442261,29.129345 
	C280.803741,26.237919 259.283783,26.551243 237.867355,30.461821 
	C197.403763,37.850349 161.775330,55.349339 131.681503,83.378502 
	C99.208267,113.623840 79.077721,151.246765 68.353142,194.004684 
	C62.756741,216.317017 62.091339,239.036484 64.148567,261.922791 
	C65.815697,280.469299 70.493340,298.211456 77.333450,316.262299 
z"/>
<path fill="currentColor" opacity="1.000000" stroke="none" 
	d="
M98.725601,259.968048 
	C95.925087,236.679276 99.016342,214.657837 108.625015,193.752838 
	C121.043861,166.733948 141.920578,147.875977 167.908783,134.431274 
	C194.900986,120.467163 223.899185,113.873253 254.093246,111.551651 
	C286.665375,109.047211 318.610291,111.879532 349.770416,121.734703 
	C379.494995,131.135864 406.347198,145.497147 426.169373,170.340378 
	C446.474670,195.789108 453.660828,225.091644 450.663177,257.379822 
	C448.282623,283.021454 440.792419,306.882111 427.776306,328.974304 
	C410.881897,357.649078 387.501923,379.698883 358.140289,395.305206 
	C340.099091,404.894531 321.162292,411.868622 300.731354,414.602997 
	C269.942169,418.723602 240.095383,415.906738 210.965958,404.654388 
	C173.896820,390.335052 145.038910,366.155090 123.719437,332.944153 
	C110.410294,312.211517 102.405884,289.389648 99.564064,264.836975 
	C99.392220,263.352234 99.031586,261.889374 98.725601,259.968048 
M206.320770,331.182251 
	C209.787384,338.480042 214.505188,344.863098 220.324951,350.456787 
	C249.737869,378.727051 297.086395,379.868378 326.796265,351.913361 
	C338.287170,341.101166 345.670776,327.960480 347.927429,312.164581 
	C348.504028,308.128540 346.846680,306.304932 342.702728,306.308777 
	C296.897156,306.351410 251.091522,306.351959 205.285965,306.302094 
	C201.260757,306.297699 199.940903,307.989777 200.594498,311.870483 
	C201.677597,318.301270 203.413101,324.520874 206.320770,331.182251 
M370.254761,185.203171 
	C363.057953,182.165649 355.624115,182.128418 348.313019,184.264816 
	C328.437775,190.072601 314.466553,215.502319 329.816071,237.999420 
	C340.172394,253.178146 362.089264,258.204987 376.528809,247.940506 
	C388.009796,239.779144 394.540680,228.757339 392.700500,214.242111 
	C390.982452,200.690247 383.716248,190.918625 370.254761,185.203171 
M165.984833,242.511047 
	C174.957901,252.373428 186.294815,255.066574 198.725327,251.979156 
	C223.107635,245.923203 233.260498,216.498993 217.862106,196.655930 
	C209.797745,186.263824 198.800201,180.662598 185.544037,182.955872 
	C171.855576,185.323944 161.828964,193.313095 157.484421,206.926498 
	C153.305939,220.019516 156.184998,231.821411 165.984833,242.511047 
z"/>
</svg>