<svg version="1.1" id="Layer_1" xmlns="http://www.w3.org/2000/svg" xmlns:xlink="http://www.w3.org/1999/xlink" x="0px" y="0px"
	 width="100%" viewBox="0 0 544 480" enable-background="new 0 0 544 480" xml:space="preserve">
<path fill="currentColor" opacity="1.000000" stroke="none" 
	d="
M545.000000,262.531342 
	C542.052063,276.336487 536.987671,288.550018 527.992432,299.177094 
	C520.431335,308.109894 511.228821,314.345367 500.539581,318.509186 
	C496.701233,320.004364 494.705292,322.508850 493.352173,326.115417 
	C485.453430,347.168365 474.475342,366.521515 460.679443,384.247284 
	C433.517334,419.146637 399.089661,444.078796 357.699432,459.687836 
	C326.813568,471.335480 294.915161,476.066376 262.143921,473.975281 
	C224.097519,471.547577 188.655365,460.259430 156.172729,440.106232 
	C117.402779,416.052185 88.077324,383.333740 67.421844,342.781616 
	C64.485054,337.015900 62.276493,330.863586 59.968769,324.799683 
	C58.813286,321.763489 57.039436,319.704224 53.948681,318.649658 
	C21.277315,307.501984 5.313169,272.753510 7.254235,244.025558 
	C9.348292,213.033356 22.888853,190.156342 52.080040,177.715485 
	C54.737339,176.582977 55.814793,174.589493 56.580349,172.150192 
	C72.750603,120.626472 103.579956,79.980064 148.069901,49.689423 
	C177.306625,29.783823 209.553177,17.485638 244.678452,12.669760 
	C268.818359,9.360038 292.871521,9.797757 316.778778,14.040499 
	C354.355469,20.709112 388.076080,36.176601 418.333038,59.447609 
	C444.395935,79.492897 464.645844,104.351440 480.038696,133.210953 
	C486.693787,145.688446 492.517975,158.615738 496.443970,172.276352 
	C497.257660,175.107605 498.897339,176.909164 501.511292,178.008804 
	C526.602966,188.564240 540.154236,207.982071 544.862732,234.646805 
	C545.000000,244.020889 545.000000,253.041794 545.000000,262.531342 
M468.133942,154.315033 
	C454.833405,125.402061 436.001953,100.743843 411.642761,80.225204 
	C376.996765,51.041622 336.955963,34.815258 291.996490,31.450186 
	C257.450958,28.864565 224.085281,34.367329 192.115234,48.572010 
	C170.242538,58.290306 150.254990,70.706612 133.029007,87.091164 
	C101.858795,116.738846 81.239830,152.813873 71.047714,194.621826 
	C65.373268,217.898315 63.848103,241.526108 66.079506,265.485382 
	C68.799995,294.696075 78.037445,321.844330 92.235260,347.128357 
	C106.231842,372.054016 125.138664,393.108398 148.078659,410.375946 
	C172.055756,428.424133 198.454559,441.576202 227.628738,448.680542 
	C256.321320,455.667603 285.301544,455.779388 314.385132,450.927124 
	C341.580078,446.389923 366.679871,436.280548 389.725952,421.504852 
	C427.502563,397.284821 455.280426,364.276978 472.785736,322.903076 
	C482.949799,298.880188 488.418182,273.648712 488.472565,247.576691 
	C488.539825,215.360275 481.769043,184.421616 468.133942,154.315033 
z"/>
<path fill="currentColor" opacity="1.000000" stroke="none" 
	d="
M106.050606,292.827423 
	C97.807121,263.215302 96.204185,234.066010 106.991730,205.071915 
	C116.053131,180.717285 132.726135,162.411118 153.686905,147.934937 
	C179.571732,130.058060 208.887604,121.263222 239.756897,116.651245 
	C270.619568,112.040253 301.262177,113.347382 331.593048,119.834427 
	C362.819580,126.513039 391.511719,139.056732 415.440094,160.823593 
	C439.699768,182.891754 452.567322,210.487244 453.205780,243.295792 
	C454.407288,305.039978 427.645416,353.126068 378.251038,388.224457 
	C340.741760,414.877625 298.076752,425.631805 252.133316,418.316162 
	C181.675201,407.096985 133.981491,367.376129 108.469139,300.867859 
	C107.517517,298.387054 106.925285,295.768433 106.050606,292.827423 
M267.807220,309.269531 
	C251.469620,311.041351 236.432205,316.527832 222.645615,325.380890 
	C215.084518,330.236237 207.607605,335.298492 202.121658,342.617584 
	C199.246719,346.453156 199.807449,351.190521 203.146835,354.386871 
	C206.363388,357.465515 210.613876,357.639130 214.447693,354.659851 
	C216.279938,353.235992 217.887375,351.523132 219.599197,349.943970 
	C245.375778,326.164948 274.770630,320.896027 307.429626,332.984772 
	C318.352631,337.027924 327.767212,343.523743 335.973450,351.798218 
	C338.568848,354.415161 341.362518,356.884857 345.494476,356.292114 
	C348.908905,355.802277 351.399963,353.983032 352.486877,350.662384 
	C353.888550,346.380280 352.431580,342.899994 349.261475,339.875153 
	C326.715637,318.362274 300.211060,307.289734 267.807220,309.269531 
M364.969757,233.777481 
	C364.308533,233.847061 363.648773,233.956284 362.985901,233.980347 
	C351.272461,234.405594 340.201630,232.044449 329.881805,226.376144 
	C326.712677,224.635452 323.506134,224.571671 320.464752,226.662064 
	C317.701324,228.561417 316.813385,231.359711 317.336090,234.544113 
	C317.901550,237.988953 320.453033,240.013062 323.254089,241.530685 
	C347.192719,254.500824 371.192932,254.526703 395.033295,241.364456 
	C400.512543,238.339340 401.973572,233.566437 399.601685,229.312653 
	C397.058136,224.750992 392.499573,223.841995 386.618622,226.993088 
	C380.085571,230.493622 373.159058,232.635010 364.969757,233.777481 
M171.597900,229.069183 
	C168.578735,227.698059 165.775269,225.788803 162.416931,225.257843 
	C158.761780,224.679947 155.672211,225.775299 153.980545,229.136887 
	C152.240372,232.594940 152.767868,235.974045 155.740738,238.661163 
	C156.962570,239.765533 158.367233,240.694504 159.776337,241.560715 
	C175.665222,251.328079 192.982697,252.851868 210.795822,249.514572 
	C218.941238,247.988525 226.882095,245.031296 233.318344,239.362961 
	C236.501053,236.559982 237.751083,233.050949 235.144928,229.140503 
	C232.583069,225.296509 228.974197,224.267975 224.684738,225.888290 
	C222.665787,226.650925 220.713043,227.600021 218.763962,228.534821 
	C203.403091,235.902161 187.913635,235.569427 171.597900,229.069183 
z"/>
</svg>