<svg version="1.1" id="Layer_1" xmlns="http://www.w3.org/2000/svg" xmlns:xlink="http://www.w3.org/1999/xlink" x="0px" y="0px"
	 width="100%" viewBox="0 0 592 496" enable-background="new 0 0 592 496" xml:space="preserve">
<path fill="currentColor" opacity="1.000000" stroke="none" 
	d="
M111.059143,404.926758 
	C94.560783,384.990417 81.572815,363.366699 72.461815,339.516113 
	C70.399773,334.118134 67.044418,331.441803 61.682846,329.185944 
	C38.340130,319.364777 25.263405,300.734070 19.964392,276.597260 
	C14.603099,252.176773 18.868954,229.313019 33.384197,208.674347 
	C40.900578,197.987091 51.167015,190.776047 63.168049,185.987747 
	C65.798714,184.938126 67.009796,183.377640 67.866020,180.769623 
	C91.479836,108.843193 138.506699,58.475689 208.437607,29.903618 
	C257.680511,9.784158 308.550018,6.949386 359.716614,20.941349 
	C406.048920,33.611336 445.543518,58.027168 477.483429,94.448402 
	C499.595825,119.663307 515.447632,148.166779 525.549255,179.997467 
	C526.638733,183.430527 528.377502,185.553909 531.861938,186.983170 
	C556.609436,197.134125 569.647888,216.613708 574.272278,242.133316 
	C577.288330,258.776855 576.373413,275.331970 569.370422,291.050140 
	C561.005127,309.825684 547.812378,323.702301 527.945190,330.397949 
	C524.983032,331.396240 523.862305,333.607697 522.884277,336.107941 
	C517.724243,349.298981 512.069580,362.245636 504.701996,374.395081 
	C479.994629,415.138367 446.650238,446.579010 404.067444,468.135315 
	C366.354309,487.226440 326.307190,495.574829 284.221924,493.143677 
	C229.733810,489.996002 181.595963,470.556610 140.106400,434.947815 
	C129.587524,425.919861 120.022736,415.959534 111.059143,404.926758 
M516.239319,236.111267 
	C515.566223,229.832916 514.867004,223.571365 513.841492,217.323761 
	C504.888367,162.780106 479.241913,117.693047 436.621033,82.653084 
	C395.623108,48.947414 348.113647,32.430843 295.097412,32.454052 
	C269.092133,32.465435 243.991425,37.830864 219.512085,46.877701 
	C180.622528,61.250114 148.619324,84.869972 123.407570,117.477631 
	C94.731194,154.566284 79.241447,196.647476 76.880058,243.696198 
	C75.586769,269.463837 78.269035,294.660065 86.278831,318.975739 
	C104.194237,373.362244 137.776932,415.677490 187.610382,444.187958 
	C234.888107,471.236298 285.729187,480.719025 339.283203,469.363861 
	C409.335846,454.510468 461.127289,414.712097 494.252289,351.178955 
	C512.893677,315.425110 519.280945,277.066437 516.239319,236.111267 
z"/>
<path fill="currentColor" opacity="1.000000" stroke="none" 
	d="
M125.228020,199.348434 
	C142.691284,167.303955 169.836945,147.372711 202.881760,134.743286 
	C226.017395,125.901047 250.087006,121.440887 274.802704,119.500595 
	C310.778290,116.676361 345.932892,120.442345 380.289551,131.106171 
	C410.697845,140.544479 436.934174,156.625031 456.964264,181.899185 
	C473.329895,202.549454 480.612274,226.498352 481.183167,252.400177 
	C482.539246,313.931519 457.037964,362.931091 409.556274,400.851715 
	C383.468750,421.686096 353.359131,433.576660 320.113434,437.405762 
	C276.420959,442.438049 235.194183,434.737976 198.313217,410.592499 
	C151.453247,379.914001 122.270790,336.887573 113.551811,280.900116 
	C109.155624,252.670715 112.397697,225.501785 125.228020,199.348434 
M155.163055,181.659531 
	C154.112488,182.949356 153.120239,184.292252 152.002518,185.520981 
	C137.146149,201.852554 129.356583,221.324081 126.428703,242.962509 
	C126.048798,245.770203 126.595047,248.037628 129.084030,249.957962 
	C146.224030,263.181915 163.296783,276.493591 180.320099,289.867523 
	C183.066147,292.024902 185.582382,292.332001 189.004730,291.375092 
	C216.893005,283.577637 244.110733,273.595154 272.123444,266.181915 
	C286.666534,262.333313 300.979309,260.197449 315.866272,264.178528 
	C345.620697,272.135437 374.629089,282.512909 404.182495,291.118622 
	C408.158936,292.276550 410.988556,291.891083 414.182617,289.335266 
	C429.916534,276.745178 445.629181,264.115356 461.726135,252.000183 
	C466.416992,248.469681 467.204559,244.732010 466.379547,239.576584 
	C460.796906,204.691711 441.817139,179.041534 412.160919,160.772461 
	C380.942078,141.540771 346.106659,134.794510 310.278870,132.510986 
	C283.567413,130.808517 257.063904,133.731247 231.102036,140.411819 
	C202.619446,147.741043 176.513611,159.649139 155.163055,181.659531 
M466.802673,266.254059 
	C464.349213,266.195892 463.147308,268.245636 461.530090,269.503693 
	C448.934753,279.301971 436.569733,289.407623 423.747131,298.896149 
	C419.428345,302.092010 417.710327,305.373047 418.354980,310.565186 
	C420.523102,328.027863 419.112579,345.378601 416.614716,362.718964 
	C416.055939,366.598114 414.325958,370.576111 415.659180,374.811035 
	C418.063263,374.026245 419.280273,372.399353 420.656311,370.997955 
	C430.261688,361.215942 438.475830,350.361145 445.348541,338.512634 
	C458.221832,316.319214 466.228546,292.634369 466.802673,266.254059 
M170.526810,368.983246 
	C172.636978,371.098694 174.309799,373.797333 177.615463,374.693726 
	C178.147263,372.300415 177.524887,370.400146 177.175430,368.448761 
	C173.604599,348.509064 172.830795,328.455597 175.322113,308.348450 
	C175.735519,305.011932 174.828827,303.135071 172.321716,301.208160 
	C165.193787,295.729767 158.292999,289.956696 151.194870,284.438477 
	C143.232605,278.248474 135.152222,272.210419 125.944603,265.210175 
	C128.866959,305.767883 143.963791,339.447632 170.526810,368.983246 
z"/>
<path fill="currentColor" opacity="1.000000" stroke="none" 
	d="
M407.649902,219.306610 
	C414.916534,216.612503 419.572357,217.935883 422.027649,223.111252 
	C424.619019,228.573380 422.949921,233.610916 416.556213,237.263412 
	C400.229980,246.589951 382.632080,248.107864 364.438232,244.889679 
	C357.704407,243.698578 351.227325,241.575317 345.180908,238.303467 
	C343.723694,237.514954 342.266205,236.678406 340.959595,235.668869 
	C336.275238,232.049561 335.138885,226.696732 337.957977,222.001572 
	C340.642426,217.530701 345.513733,216.290909 351.059357,218.992004 
	C359.183868,222.949265 367.511078,226.142960 376.642090,226.635757 
	C387.541687,227.224045 397.734924,224.684769 407.649902,219.306610 
z"/>
<path fill="currentColor" opacity="1.000000" stroke="none" 
	d="
M222.102142,226.136353 
	C229.360168,225.042511 235.602280,222.378326 241.771545,219.409241 
	C248.528015,216.157562 253.171402,217.236588 255.966736,222.417801 
	C258.980560,228.004059 257.099304,233.883301 250.500641,237.411102 
	C236.306747,244.999512 221.040512,247.605515 205.101013,245.874435 
	C195.789734,244.863190 186.844055,242.298172 178.467880,237.993301 
	C174.805496,236.111053 171.758286,233.663208 170.922852,229.282471 
	C170.213028,225.560410 170.970871,222.266464 173.913773,219.793106 
	C177.037933,217.167496 180.656479,217.019714 184.236404,218.673187 
	C190.875229,221.739456 197.408325,224.930923 204.798386,226.011063 
	C210.452606,226.837479 216.042603,226.929550 222.102142,226.136353 
z"/>
</svg>